<svg xmlns="http://www.w3.org/2000/svg" viewBox="0 0 24 24" fill="none" stroke="currentColor" stroke-width="2" stroke-linecap="round" stroke-linejoin="round" class="feather feather-brain" width="50" height="50">
  <path d="M9.5 2A2.5 2.5 0 0 1 12 4.5v15a2.5 2.5 0 0 1-5 0v-15A2.5 2.5 0 0 1 9.5 2Z" fill="#6c5ce7" stroke="#6c5ce7"></path>
  <path d="M14.5 2A2.5 2.5 0 0 0 12 4.5v15a2.5 2.5 0 0 0 5 0v-7" fill="#6c5ce7" stroke="#6c5ce7"></path>
  <path d="M17 9.5V9a2.5 2.5 0 0 1 5 0v1.5" fill="#6c5ce7" stroke="#6c5ce7"></path>
  <path d="M21.5 12H22a2 2 0 0 1 0 4h-.5" fill="#6c5ce7" stroke="#6c5ce7"></path>
  <path d="M17 16v.5a2.5 2.5 0 0 1-5 0V16" fill="#6c5ce7" stroke="#6c5ce7"></path>
  <path d="M7 9.5V9a2.5 2.5 0 0 0-5 0v1.5" fill="#6c5ce7" stroke="#6c5ce7"></path>
  <path d="M2.5 12H2a2 2 0 0 0 0 4h.5" fill="#6c5ce7" stroke="#6c5ce7"></path>
  <path d="M7 16v.5a2.5 2.5 0 0 0 5 0V16" fill="#6c5ce7" stroke="#6c5ce7"></path>
</svg> 